<svg width="48" height="50" viewBox="0 0 48 50" fill="none" xmlns="http://www.w3.org/2000/svg">
<path d="M47.5606 18.2922C48.1464 17.682 48.1464 16.693 47.5606 16.0828L32.5606 0.457813C32.2674 0.152344 31.8841 0 31.5001 0C31.1161 0 30.7329 0.152344 30.4396 0.457813L21.4396 9.83281C20.4039 10.9117 18.7794 11.4586 16.6111 11.4586C12.5394 11.4586 8.13312 9.52109 8.08962 9.50078C7.90062 9.41719 7.70037 9.375 7.50012 9.375C7.25112 9.375 7.00362 9.43906 6.78012 9.56719C6.37662 9.79766 6.09612 10.2078 6.02037 10.6805L0.020369 48.1805C-0.059131 48.6789 0.096869 49.1852 0.439619 49.5422C0.723119 49.8375 1.10562 50 1.50012 50C1.58187 50 1.66437 49.993 1.74687 49.9789L37.7469 43.7289C38.2006 43.65 38.5951 43.3578 38.8164 42.9375C39.0376 42.5164 39.0601 42.0125 38.8786 41.5719C37.7379 38.8 35.4579 30.8992 38.5606 27.6672L47.5606 18.2922ZM38.0304 26.0102L23.0304 10.3852L24.2199 9.14609L39.2199 24.7711L38.0304 26.0102ZM31.4986 1.5625V1.5625L46.5001 17.1875L40.2804 23.6664L25.2804 8.04141L31.4986 1.5625ZM35.6401 34.9844C35.9716 37.768 36.8184 40.5305 37.5001 42.1875L2.77362 48.2164L18.1854 32.1617C18.7786 32.5711 19.4866 32.8125 20.2501 32.8125C22.3179 32.8125 24.0001 31.0602 24.0001 28.9062C24.0001 26.7523 22.3179 25 20.2501 25C18.1824 25 16.5001 26.7523 16.5001 28.9062C16.5001 29.7016 16.7319 30.4398 17.1249 31.057L1.71162 47.1133L7.49337 10.9344C7.53987 10.9555 12.1681 13.0211 16.6111 13.0211C18.8521 13.0211 20.6401 12.4906 21.9414 11.4453C21.9526 11.4594 21.9571 11.4766 21.9691 11.4898L36.9691 27.1148C36.9841 27.1305 37.0029 27.1344 37.0171 27.1484C35.6994 28.925 35.2314 31.5516 35.6401 34.9844ZM18.0001 28.9062C18.0001 27.6141 19.0096 26.5625 20.2501 26.5625C21.4906 26.5625 22.5001 27.6141 22.5001 28.9062C22.5001 30.1984 21.4906 31.25 20.2501 31.25C19.0096 31.25 18.0001 30.1984 18.0001 28.9062Z" fill="#394240"/>
<path d="M38.0303 26.0102L23.0303 10.3852L24.2198 9.14612L39.2198 24.7711L38.0303 26.0102Z" fill="#506C7F"/>
<path d="M31.4985 1.5625L46.5 17.1875L40.2803 23.6664L25.2803 8.04141L31.4985 1.5625Z" fill="#F76D57"/>
<path d="M35.6399 34.9844C35.9714 37.768 36.8182 40.5305 37.4999 42.1875L2.77343 48.2164L18.1852 32.1617C18.7784 32.5711 19.4864 32.8125 20.2499 32.8125C22.3177 32.8125 23.9999 31.0602 23.9999 28.9063C23.9999 26.7524 22.3177 25 20.2499 25C18.1822 25 16.4999 26.7524 16.4999 28.9063C16.4999 29.7016 16.7317 30.4399 17.1247 31.057L1.71143 47.1133L7.49318 10.9344C7.53968 10.9555 12.1679 13.0211 16.6109 13.0211C18.8519 13.0211 20.6399 12.4906 21.9412 11.4453C21.9524 11.4594 21.9569 11.4766 21.9689 11.4899L36.9689 27.1149C36.9839 27.1305 37.0027 27.1344 37.0169 27.1484C35.6992 28.925 35.2312 31.5516 35.6399 34.9844Z" fill="#F9EBB2"/>
<path d="M20.25 31.25C21.4926 31.25 22.5 30.2007 22.5 28.9062C22.5 27.6118 21.4926 26.5625 20.25 26.5625C19.0074 26.5625 18 27.6118 18 28.9062C18 30.2007 19.0074 31.25 20.25 31.25Z" fill="#B4CCB9"/>
</svg>
