<svg width="58" height="48" viewBox="0 0 58 48" fill="none" xmlns="http://www.w3.org/2000/svg">
<path d="M12.0344 13.1469C15.2301 10.502 19.169 8.69608 23.461 7.86068V4.08049C23.461 2.35502 25.1512 0.956177 27.2362 0.956177C28.2375 0.956177 29.1977 1.28543 29.9056 1.87127L37.9614 8.53811C39.4356 9.75818 39.4356 11.7364 37.9614 12.9565L29.9056 19.6233C29.1976 20.2092 28.2373 20.5384 27.2362 20.5384C25.1513 20.5384 23.461 19.1396 23.461 17.4142V14.3753C17.1114 16.2609 12.5571 21.2919 12.5571 27.1874C12.5571 34.6908 19.9335 40.7953 29 40.7953C38.0666 40.7953 45.4429 34.6909 45.4429 27.1874C45.4429 25.462 47.1331 24.0632 49.218 24.0632C51.303 24.0632 52.9932 25.462 52.9932 27.1874C52.9932 32.4913 50.4975 37.4777 45.9657 41.228C41.4341 44.9784 35.4088 47.0439 29 47.0439C22.5913 47.0439 16.5659 44.9785 12.0344 41.228C7.50265 37.4776 5.00684 32.4912 5.00684 27.1874C5.00695 21.8836 7.50265 16.8972 12.0344 13.1469Z" fill="#F9EBB2"/>
<path d="M29.0001 48C22.2826 48 15.9673 45.835 11.2174 41.9041C6.46757 37.9732 3.85156 32.7467 3.85156 27.1874C3.85156 21.6282 6.46757 16.4017 11.2174 12.4707C14.3152 9.90703 18.133 8.06634 22.3058 7.11778V4.08047C22.3058 1.83047 24.5175 0 27.2362 0C28.5531 0 29.7914 0.424406 30.7227 1.19513L38.7784 7.86197C39.7098 8.63278 40.2225 9.65738 40.2225 10.7473C40.2225 11.8373 39.7098 12.862 38.7784 13.6327L30.7227 20.2996C29.7912 21.0703 28.5532 21.4946 27.2362 21.4946C24.5175 21.4946 22.3056 19.6642 22.3056 17.4142V15.8153C17.1046 17.9184 13.7126 22.3293 13.7126 27.1875C13.7126 34.1637 20.5704 39.8392 29 39.8392C37.4296 39.8392 44.2873 34.1637 44.2873 27.1875C44.2873 24.9376 46.4991 23.1071 49.2179 23.1071C51.9366 23.1071 54.1484 24.9376 54.1484 27.1875C54.1484 32.7468 51.5324 37.9732 46.7825 41.9042C42.0327 45.8351 35.7176 48 29.0001 48ZM27.2361 1.91231C25.7915 1.91231 24.6162 2.88497 24.6162 4.08047V7.86066C24.6162 8.30437 24.2473 8.68988 23.7253 8.79141C19.6243 9.58969 15.8641 11.3296 12.8512 13.823C8.53755 17.3928 6.16205 22.1391 6.16205 27.1874C6.16205 32.2359 8.53767 36.9822 12.8512 40.5518C17.1646 44.1217 22.8996 46.0876 28.9999 46.0876C35.1002 46.0876 40.8353 44.1216 45.1486 40.5518C49.4622 36.982 51.8377 32.2358 51.8377 27.1873C51.8377 25.9919 50.6624 25.0193 49.2179 25.0193C47.7733 25.0193 46.598 25.9919 46.598 27.1873C46.598 35.2179 38.7036 41.7514 28.9999 41.7514C19.2962 41.7514 11.4016 35.218 11.4016 27.1874C11.4016 21.0584 16.091 15.548 23.0705 13.4752C23.4246 13.3699 23.8183 13.4141 24.1256 13.5932C24.4332 13.7723 24.6162 14.064 24.6162 14.3752V17.4142C24.6162 18.6096 25.7915 19.5822 27.2361 19.5822C27.9359 19.5822 28.5938 19.3568 29.0886 18.9473L37.1442 12.2803C37.6391 11.8709 37.9116 11.3263 37.9116 10.7473C37.9116 10.1683 37.6392 9.62372 37.1442 9.21431L29.0885 2.54747C28.5938 2.13778 27.9359 1.91231 27.2361 1.91231Z" fill="#394240"/>
<path d="M30.0607 16.75C29.7649 16.75 29.4693 16.6566 29.2437 16.4699C28.7925 16.0965 28.7925 15.4911 29.2437 15.1176L29.4249 14.9676C29.8762 14.5943 30.6076 14.5943 31.059 14.9676C31.5102 15.341 31.5102 15.9464 31.059 16.3199L30.8778 16.4699C30.652 16.6565 30.3563 16.75 30.0607 16.75Z" fill="#F76D57"/>
<path d="M32.7892 14.4975C32.4934 14.4975 32.1978 14.4041 31.9722 14.2175C31.521 13.8441 31.521 13.2386 31.9722 12.8651L34.9699 10.3842C35.4213 10.0109 36.1526 10.0109 36.604 10.3842C37.0552 10.7576 37.0552 11.3631 36.604 11.7366L33.6063 14.2175C33.3805 14.4042 33.0848 14.4975 32.7892 14.4975Z" fill="#F76D57"/>
</svg>
