<svg width="44" height="41" viewBox="0 0 44 41" fill="none" xmlns="http://www.w3.org/2000/svg">
<g clip-path="url(#clip0_34_76)">
<path d="M0 0V41H44L0 0ZM7.77019 17.5341L25.183 33.7596H7.77019V17.5341Z" fill="#FEC656"/>
<path d="M11.4211 4.62335L11.1403 2.8787C11.0466 2.18085 11.702 1.57019 12.4509 1.65745L14.3232 1.91915L11.4211 4.62335Z" fill="#637888"/>
<path d="M16.1955 4.36165C15.6338 4.27439 14.9784 4.36165 14.604 4.79779C14.136 5.23402 14.0423 5.75742 14.136 6.28083C13.5743 6.19357 12.9189 6.28083 12.5445 6.71697C12.2637 6.97867 12.0765 7.32764 12.0765 7.67652L11.6084 4.62335L14.5106 1.91907L17.8808 2.35521C17.5063 2.44247 17.1319 2.52965 16.851 2.79135C16.1955 3.22766 16.0083 3.83824 16.1955 4.36165Z" fill="#FEC656"/>
<path d="M42.5958 28.5256L39.9745 30.9682C39.132 31.7533 37.7277 31.7533 36.7915 30.9682L42.5957 25.6469C43.4384 26.432 43.4384 27.6532 42.5958 28.5256Z" fill="#4D4E5B"/>
<path d="M42.5957 25.5595L40.7234 27.3043L16.1957 4.36166C16.1021 3.83826 16.1957 3.22759 16.6638 2.87871C16.9446 2.61701 17.3191 2.44257 17.6935 2.44257H17.7872L42.5957 25.5595Z" fill="#28D2E4"/>
<path d="M36.8851 30.9681C36.8851 30.8809 36.7915 30.8809 36.8851 30.9681L11.9829 7.76379V7.67653C12.0766 7.32756 12.1701 6.97868 12.451 6.71698C12.9191 6.28084 13.4808 6.19358 14.0425 6.28084L38.6638 29.2234L36.8851 30.9681Z" fill="#28D2E4"/>
<path d="M38.6637 29.2234L14.0424 6.28087C13.9488 5.75746 14.0424 5.14679 14.5105 4.79791C14.9785 4.36177 15.5402 4.27451 16.1019 4.36177L40.7233 27.3043L38.6637 29.2234Z" fill="#F9EBB2"/>
<path d="M1.40439 38.6447H1.12354V40.5638H1.40439V38.6447Z" fill="#4D4E5B"/>
<path d="M2.52792 39.6042H2.24707V40.5638H2.52792V39.6042Z" fill="#4D4E5B"/>
<path d="M3.65097 38.6447H3.37012V40.5638H3.65097V38.6447Z" fill="#4D4E5B"/>
<path d="M4.7745 39.6042H4.49365V40.5638H4.7745V39.6042Z" fill="#4D4E5B"/>
<path d="M5.89804 38.6447H5.61719V40.5638H5.89804V38.6447Z" fill="#4D4E5B"/>
<path d="M7.02157 39.6042H6.74072V40.5638H7.02157V39.6042Z" fill="#4D4E5B"/>
<path d="M8.14462 38.6447H7.86377V40.5638H8.14462V38.6447Z" fill="#4D4E5B"/>
<path d="M9.17441 39.6042H8.89355V40.5638H9.17441V39.6042Z" fill="#4D4E5B"/>
<path d="M10.2979 38.6447H10.0171V40.5638H10.2979V38.6447Z" fill="#4D4E5B"/>
<path d="M11.4215 39.6042H11.1406V40.5638H11.4215V39.6042Z" fill="#4D4E5B"/>
<path d="M12.545 38.6447H12.2642V40.5638H12.545V38.6447Z" fill="#4D4E5B"/>
<path d="M13.6681 39.6042H13.3872V40.5638H13.6681V39.6042Z" fill="#4D4E5B"/>
<path d="M14.7916 38.6447H14.5107V40.5638H14.7916V38.6447Z" fill="#4D4E5B"/>
<path d="M15.9151 39.6042H15.6343V40.5638H15.9151V39.6042Z" fill="#4D4E5B"/>
<path d="M17.0382 38.6447H16.7573V40.5638H17.0382V38.6447Z" fill="#4D4E5B"/>
<path d="M18.0684 39.6042H17.7876V40.5638H18.0684V39.6042Z" fill="#4D4E5B"/>
<path d="M19.1915 38.6447H18.9106V40.5638H19.1915V38.6447Z" fill="#4D4E5B"/>
<path d="M20.315 39.6042H20.0342V40.5638H20.315V39.6042Z" fill="#4D4E5B"/>
<path d="M21.4386 38.6447H21.1577V40.5638H21.4386V38.6447Z" fill="#4D4E5B"/>
<path d="M22.5621 39.6042H22.2812V40.5638H22.5621V39.6042Z" fill="#4D4E5B"/>
<path d="M23.6851 38.6447H23.4043V40.5638H23.6851V38.6447Z" fill="#4D4E5B"/>
<path d="M24.8087 39.6042H24.5278V40.5638H24.8087V39.6042Z" fill="#4D4E5B"/>
<path d="M25.9322 38.6447H25.6514V40.5638H25.9322V38.6447Z" fill="#4D4E5B"/>
<path d="M26.962 39.6042H26.6812V40.5638H26.962V39.6042Z" fill="#4D4E5B"/>
<path d="M28.0851 38.6447H27.8042V40.5638H28.0851V38.6447Z" fill="#4D4E5B"/>
<path d="M29.2086 39.6042H28.9277V40.5638H29.2086V39.6042Z" fill="#4D4E5B"/>
<path d="M30.3321 38.6447H30.0513V40.5638H30.3321V38.6447Z" fill="#4D4E5B"/>
<path d="M31.4557 39.6042H31.1748V40.5638H31.4557V39.6042Z" fill="#4D4E5B"/>
<path d="M32.5787 38.6447H32.2979V40.5638H32.5787V38.6447Z" fill="#4D4E5B"/>
<path d="M33.7022 39.6042H33.4214V40.5638H33.7022V39.6042Z" fill="#4D4E5B"/>
<path d="M34.8258 38.6447H34.5449V40.5638H34.8258V38.6447Z" fill="#4D4E5B"/>
<path d="M35.8556 39.6042H35.5747V40.5638H35.8556V39.6042Z" fill="#4D4E5B"/>
<path d="M36.9791 38.6447H36.6982V40.5638H36.9791V38.6447Z" fill="#4D4E5B"/>
<path d="M38.1021 39.6042H37.8213V40.5638H38.1021V39.6042Z" fill="#4D4E5B"/>
<path d="M39.2257 38.6447H38.9448V40.5638H39.2257V38.6447Z" fill="#4D4E5B"/>
<path d="M40.3492 39.6042H40.0684V40.5638H40.3492V39.6042Z" fill="#4D4E5B"/>
</g>
<defs>
<clipPath id="clip0_34_76">
<rect width="44" height="41" fill="white"/>
</clipPath>
</defs>
</svg>
