<svg width="58" height="49" viewBox="0 0 58 49" fill="none" xmlns="http://www.w3.org/2000/svg">
<g clip-path="url(#clip0_34_122)">
<g filter="url(#filter0_d_34_122)">
<path d="M45.9657 13.4207C42.7699 10.7208 38.831 8.87723 34.539 8.02442V4.16548C34.539 2.40406 32.8489 0.976074 30.7638 0.976074C29.7625 0.976074 28.8024 1.31218 28.0945 1.91023L20.0387 8.71597C18.5644 9.96145 18.5644 11.9809 20.0387 13.2264L28.0945 20.0321C28.8025 20.6302 29.7628 20.9663 30.7638 20.9663C32.8488 20.9663 34.539 19.5384 34.539 17.7769V14.6747C40.8887 16.5996 45.4429 21.7354 45.4429 27.7538C45.4429 35.4135 38.0666 41.6452 29 41.6452C19.9335 41.6452 12.5571 35.4136 12.5571 27.7538C12.5571 25.9924 10.867 24.5645 8.78205 24.5645C6.69711 24.5645 5.00684 25.9924 5.00684 27.7538C5.00684 33.1682 7.50253 38.2585 12.0344 42.0869C16.5659 45.9154 22.5913 48.0239 29 48.0239C35.4088 48.0239 41.4341 45.9155 45.9657 42.0869C50.4974 38.2584 52.9932 33.1681 52.9932 27.7538C52.9932 22.3395 50.4974 17.2492 45.9657 13.4207Z" fill="#F9EBB2"/>
<path d="M34.039 8.02442V8.43484L34.4416 8.51483C38.6564 9.3523 42.5163 11.1611 45.643 13.8027L45.9657 13.4207L45.643 13.8027C50.0745 17.5465 52.4932 22.5019 52.4932 27.7538C52.4932 33.0057 50.0745 37.9612 45.643 41.7049L45.9657 42.0869L45.643 41.705C41.2092 45.451 35.3009 47.5239 29 47.5239C22.6992 47.5239 16.7909 45.4509 12.357 41.7049L12.0376 42.083L12.357 41.7049C7.92549 37.9613 5.50684 33.0058 5.50684 27.7538C5.50684 26.3443 6.89089 25.0645 8.78205 25.0645C10.6732 25.0645 12.0571 26.3442 12.0571 27.7538C12.0571 35.7654 19.7397 42.1452 29 42.1452C38.2604 42.1452 45.9429 35.7654 45.9429 27.7538C45.9429 21.4632 41.1902 16.1686 34.6841 14.1962L34.039 14.0007V14.6747V17.7769C34.039 19.1865 32.655 20.4663 30.7638 20.4663C29.8707 20.4663 29.0274 20.1657 28.4171 19.6502L20.3614 12.8444C19.7294 12.3105 19.433 11.6309 19.433 10.9712C19.433 10.3115 19.7294 9.63183 20.3614 9.09791L28.4171 2.29218C29.0273 1.77669 29.8705 1.47607 30.7638 1.47607C32.6551 1.47607 34.039 2.7559 34.039 4.16548V8.02442Z" stroke="#FF0909"/>
</g>
<path d="M29.0001 49C22.2827 49 15.9673 46.7899 11.2174 42.7771C6.46757 38.7643 3.85156 33.4289 3.85156 27.7538C3.85156 25.457 6.06338 23.5884 8.78213 23.5884C11.5009 23.5884 13.7127 25.457 13.7127 27.7538C13.7127 34.8754 20.5705 40.6691 29.0001 40.6691C37.4297 40.6691 44.2874 34.8754 44.2874 27.7538C44.2874 22.7944 40.8954 18.2917 35.6944 16.1447V17.777C35.6944 20.0737 33.4825 21.9423 30.7638 21.9423C29.4469 21.9423 28.2087 21.5092 27.2774 20.7224L19.2216 13.9166C18.2902 13.1298 17.7775 12.0839 17.7775 10.9711C17.7775 9.85857 18.2902 8.81244 19.2216 8.02566L27.2773 1.21993C28.2087 0.433248 29.447 0 30.764 0C33.4828 0 35.6946 1.8686 35.6946 4.16548V7.26607C39.8671 8.23458 43.6851 10.1135 46.7829 12.7305C51.5328 16.7435 54.1488 22.0788 54.1488 27.7538C54.1488 33.4289 51.5328 38.7643 46.7829 42.7771C42.033 46.7899 35.7176 49 29.0001 49ZM8.78213 25.5406C7.33757 25.5406 6.16227 26.5335 6.16227 27.7538C6.16227 32.9075 8.5379 37.7527 12.8514 41.3967C17.1647 45.0409 22.8997 47.0477 29 47.0477C35.1003 47.0477 40.8354 45.0408 45.1487 41.3966C49.4623 37.7525 51.8378 32.9074 51.8378 27.7537C51.8378 22.6001 49.4622 17.7549 45.1487 14.1109C42.1359 11.5655 38.3756 9.78938 34.2746 8.97446C33.7526 8.87072 33.3836 8.47729 33.3836 8.02432V4.16557C33.3835 2.94517 32.2084 1.95225 30.7638 1.95225C30.0639 1.95225 29.4061 2.18241 28.9114 2.60054L20.8556 9.40618C20.3608 9.82412 20.0883 10.3801 20.0883 10.9711C20.0883 11.5622 20.3607 12.1181 20.8555 12.5361L28.9114 19.3419C29.4061 19.7598 30.0642 19.9901 30.7638 19.9901C32.2084 19.9901 33.3836 18.9972 33.3836 17.7769V14.6746C33.3836 14.3569 33.5667 14.0591 33.8743 13.8763C34.1816 13.6936 34.5751 13.6483 34.9294 13.7559C41.9089 15.8718 46.5982 21.4971 46.5982 27.7537C46.5982 35.9516 38.7038 42.6212 29.0001 42.6212C19.2964 42.6212 11.4019 35.9516 11.4019 27.7537C11.4019 26.5335 10.2267 25.5406 8.78213 25.5406Z" fill="#394240"/>
<path d="M27.9397 17.0989C27.6439 17.0989 27.3483 17.0035 27.1227 16.813L26.9414 16.6599C26.4902 16.2787 26.4902 15.6606 26.9414 15.2793C27.3927 14.8983 28.1241 14.8983 28.5755 15.2793L28.7568 15.4325C29.208 15.8137 29.208 16.4317 28.7568 16.813C28.531 17.0034 28.2354 17.0989 27.9397 17.0989Z" fill="#F76D57"/>
<path d="M25.2108 14.7995C24.915 14.7995 24.6194 14.7042 24.3938 14.5136L21.396 11.981C20.9448 11.5998 20.9448 10.9818 21.396 10.6005C21.8473 10.2194 22.5787 10.2194 23.0301 10.6005L26.0279 13.1331C26.4791 13.5143 26.4791 14.1323 26.0279 14.5136C25.8021 14.7043 25.5065 14.7995 25.2108 14.7995Z" fill="#F76D57"/>
</g>
<defs>
<filter id="filter0_d_34_122" x="1.00684" y="0.976074" width="55.9863" height="55.0479" filterUnits="userSpaceOnUse" color-interpolation-filters="sRGB">
<feFlood flood-opacity="0" result="BackgroundImageFix"/>
<feColorMatrix in="SourceAlpha" type="matrix" values="0 0 0 0 0 0 0 0 0 0 0 0 0 0 0 0 0 0 127 0" result="hardAlpha"/>
<feOffset dy="4"/>
<feGaussianBlur stdDeviation="2"/>
<feComposite in2="hardAlpha" operator="out"/>
<feColorMatrix type="matrix" values="0 0 0 0 0 0 0 0 0 0 0 0 0 0 0 0 0 0 0.25 0"/>
<feBlend mode="normal" in2="BackgroundImageFix" result="effect1_dropShadow_34_122"/>
<feBlend mode="normal" in="SourceGraphic" in2="effect1_dropShadow_34_122" result="shape"/>
</filter>
<clipPath id="clip0_34_122">
<rect width="58" height="49" fill="white"/>
</clipPath>
</defs>
</svg>
